<svg id="visual" viewBox="0 0 900 450" width="900" height="450" xmlns="http://www.w3.org/2000/svg" xmlns:xlink="http://www.w3.org/1999/xlink" version="1.1"><path d="M0 341L21.5 347.5C43 354 86 367 128.8 368.5C171.7 370 214.3 360 257.2 358C300 356 343 362 385.8 368.5C428.7 375 471.3 382 514.2 380.7C557 379.3 600 369.7 642.8 352.3C685.7 335 728.3 310 771.2 310.8C814 311.7 857 338.3 878.5 351.7L900 365L900 451L878.5 451C857 451 814 451 771.2 451C728.3 451 685.7 451 642.8 451C600 451 557 451 514.2 451C471.3 451 428.7 451 385.8 451C343 451 300 451 257.2 451C214.3 451 171.7 451 128.8 451C86 451 43 451 21.5 451L0 451Z" fill="#dc2626" stroke-linecap="round" stroke-linejoin="miter"></path></svg>