<svg id="visual" viewBox="0 0 900 600" width="900" height="600" xmlns="http://www.w3.org/2000/svg" xmlns:xlink="http://www.w3.org/1999/xlink" version="1.1"><path d="M0 455L21.5 463.7C43 472.3 86 489.7 128.8 491.7C171.7 493.7 214.3 480.3 257.2 477.5C300 474.7 343 482.3 385.8 491C428.7 499.7 471.3 509.3 514.2 507.7C557 506 600 493 642.8 469.8C685.7 446.7 728.3 413.3 771.2 414.5C814 415.7 857 451.3 878.5 469.2L900 487L900 601L878.5 601C857 601 814 601 771.2 601C728.3 601 685.7 601 642.8 601C600 601 557 601 514.2 601C471.3 601 428.7 601 385.8 601C343 601 300 601 257.2 601C214.3 601 171.7 601 128.8 601C86 601 43 601 21.5 601L0 601Z" fill="#dc2626" stroke-linecap="round" stroke-linejoin="miter"></path></svg>