<svg width="438" height="485" viewBox="0 0 438 485" fill="none" xmlns="http://www.w3.org/2000/svg">
<g opacity="0.4">
<path d="M272.863 59.5354C272.863 59.5354 226.432 300.136 68.2459 394.434L132.077 410.677C132.077 410.677 142.506 358.773 202.072 373.902C261.638 389.031 243.202 441.07 243.202 441.07L303.418 456.349C303.418 456.349 209.625 330 289.229 63.6896L272.863 59.5354Z" stroke="white" stroke-width="2.19582" stroke-linecap="round" stroke-linejoin="round"/>
<path d="M268.652 253.008L266.649 260.891L194.551 242.576L196.554 234.693L268.652 253.008Z" stroke="white" stroke-width="2.19582" stroke-linecap="round" stroke-linejoin="round"/>
<path d="M276.418 336.459L271.593 355.453L144.671 323.212L149.496 304.218L276.418 336.459Z" stroke="white" stroke-width="2.19582" stroke-linecap="round" stroke-linejoin="round"/>
<path d="M235.668 274.588L235.465 326.019L190.338 314.546L215.376 269.441L235.668 274.588Z" stroke="white" stroke-width="2.19582" stroke-linecap="round" stroke-linejoin="round"/>
<path d="M290.726 64.0693L297.217 65.7225L302.422 45.2131L270.472 37.1057L265.266 57.5914L290.726 64.0693Z" stroke="white" stroke-width="2.19582" stroke-linecap="round" stroke-linejoin="round"/>
<path d="M295.773 1.22423L295.516 43.4702L276.946 38.7515L295.773 1.22423Z" stroke="white" stroke-width="2.19582" stroke-linecap="round" stroke-linejoin="round"/>
<path d="M192.792 263.701L235.665 274.589L257.428 280.12L235.597 291.085L258.85 306.222L235.462 326.02L261.776 332.695L235.545 303.572L257.928 292.538L235.665 274.589" stroke="white" stroke-width="2.19582" stroke-linecap="round" stroke-linejoin="round"/>
<path d="M214.712 269.256L186.573 274.395L200.982 294.781L164.011 307.859L190.337 314.545L179.221 285.99L206.888 283.784L192.938 263.737L214.712 269.256ZM214.712 269.256L257.574 280.156L203.685 244.868" stroke="white" stroke-width="2.19582" stroke-linecap="round" stroke-linejoin="round"/>
<path d="M232.525 185.439L261.694 192.851L238.315 171.391L265.089 168.552L246.943 148.704" stroke="white" stroke-width="2.19582" stroke-linecap="round" stroke-linejoin="round"/>
<path d="M267.561 153.935L246.944 148.702L269.439 141.632L254.085 128.074L274.05 121.693" stroke="white" stroke-width="2.19582" stroke-linecap="round" stroke-linejoin="round"/>
<path d="M268.347 368.383L139.471 335.628" stroke="white" stroke-width="2.19582" stroke-linecap="round" stroke-linejoin="round"/>
<path d="M261.693 192.849L226.523 199.142L258.746 223.108L219.568 213.143L256.743 242.271L209.771 238.036" stroke="white" stroke-width="2.19582" stroke-linecap="round" stroke-linejoin="round"/>
<path d="M257.481 117.463L274.053 121.688L261.312 106.463L278.317 103.631L265.384 90.4932" stroke="white" stroke-width="2.19582" stroke-linecap="round" stroke-linejoin="round"/>
<path d="M273.557 388.359L124.918 350.591" stroke="white" stroke-width="2.19582" stroke-linecap="round" stroke-linejoin="round"/>
<path d="M303.445 456.363L238.999 397.572L279.833 407.684L243.289 441.069" stroke="white" stroke-width="2.19582" stroke-linecap="round" stroke-linejoin="round"/>
<path d="M68.2591 394.444L157.294 376.811L109.743 364.467L132.148 410.671" stroke="white" stroke-width="2.19582" stroke-linecap="round" stroke-linejoin="round"/>
<path d="M289.252 63.6886L270.864 68.9176L284.159 81.9504L265.382 90.4991L280.665 94.3878" stroke="white" stroke-width="2.19582" stroke-linecap="round" stroke-linejoin="round"/>
<path d="M261.779 192.882L232.61 185.469L263.401 177.761L242.297 163.227L266.646 153.709" stroke="white" stroke-width="2.19582" stroke-linecap="round" stroke-linejoin="round"/>
<path d="M246.942 148.703L266.644 153.708L250.922 137.433L271.481 131.846L257.476 117.469" stroke="white" stroke-width="2.19582" stroke-linecap="round" stroke-linejoin="round"/>
<path d="M232.608 185.469L259.673 207.106L220.759 213.439L258.745 223.109L211.681 230.523L256.655 249.948" stroke="white" stroke-width="2.19582" stroke-linecap="round" stroke-linejoin="round"/>
<path d="M272.304 121.24L257.478 117.466L276.576 110.474L262.766 99.8677L280.664 94.3841" stroke="white" stroke-width="2.19582" stroke-linecap="round" stroke-linejoin="round"/>
<path d="M272.848 59.5256L285.515 73.9247L268.521 78.1079L280.664 94.3887L265.38 90.5" stroke="white" stroke-width="2.19582" stroke-linecap="round" stroke-linejoin="round"/>
<path d="M257.241 258.48L192.938 263.737" stroke="white" stroke-width="2.19582" stroke-linecap="round" stroke-linejoin="round"/>
<path d="M266.568 52.5081L298.521 60.625L297.211 65.783L265.258 57.6661L266.568 52.5081Z" stroke="white" stroke-width="2.19582" stroke-linecap="round" stroke-linejoin="round"/>
<path d="M270.479 37.176L302.433 45.293L301.122 50.4509L269.169 42.334L270.479 37.176Z" stroke="white" stroke-width="2.19582" stroke-linecap="round" stroke-linejoin="round"/>
</g>
</svg>
